<svg viewBox="0 0 36 36"    xmlns="http://www.w3.org/2000/svg">    <g transform="translate(0.000000, 7.000000)" style="fill: #091e42; fill-rule:evenodd;" fill-rule="nonzero">        <path d="M31.1914894,9.00067701 L27,9.00067701 L27,21 L34,21 L34,11.4896407 C33.9973418,10.8184474 33.6981691,10.1764508 33.1698709,9.70826125 C32.6415726,9.24007179 31.9285778,8.98506339 31.1914894,9.00067701 Z" opacity="0.5"></path>        <path d="M10,9.00021732 L6.02347418,9.00021732 C4.42524087,8.9822661 3.09354794,10.0785752 3,11.4892763 L3,21 L10,21 L10,9.00021732 Z" opacity="0.5"></path>        <path d="M18,15 C16.8954305,15 16,16.0023476 16,17.2388059 L16,21 L20,21 L20,17.2388059 C20,16.0023476 19.1045695,15 18,15 Z" opacity="0.5"></path>        <path d="M34.9208993,20.8999563 L27.0074938,20.8999563 L27.0074938,2.59239843 C27.0019906,1.15903249 25.8449839,0 24.4196503,0 L11.6602831,0 C10.2349495,0 9.07794284,1.15903249 9.07243965,2.59239843 L9.07243965,20.8999563 L1.07910075,20.8999563 C0.512999698,20.8983924 0.0419314336,21.3370281 0,21.9047619 L0,21.9951944 C0.0383672145,22.5333421 0.464039351,22.9614163 0.999167364,23 L35.0008326,23 C35.5359607,22.9614163 35.9616328,22.5333421 36,21.9951944 L36,21.9047619 C35.9580686,21.3370281 35.4870003,20.8983924 34.9208993,20.8999563 L34.9208993,20.8999563 Z M21.2422981,3.235474 C22.1307362,3.235474 22.8509575,3.95975953 22.8509575,4.85321101 C22.8509575,5.74666249 22.1307362,6.47094801 21.2422981,6.47094801 C20.35386,6.47094801 19.6336386,5.74666249 19.6336386,4.85321101 C19.6336386,3.95975953 20.35386,3.235474 21.2422981,3.235474 L21.2422981,3.235474 Z M18.0149875,15.627639 C19.1186373,15.627639 20.0133222,16.5273725 20.0133222,17.6372501 L20.0133222,21.013397 L16.0166528,21.013397 L16.0166528,17.6372501 C16.0166528,16.5273725 16.9113377,15.627639 18.0149875,15.627639 Z M14.7876769,3.23541223 C15.6747934,3.24101525 16.3899987,3.96773607 16.386359,4.85986813 C16.3826632,5.75200019 15.6615071,6.472749 14.7743754,6.47092036 C13.8872436,6.46907776 13.1690258,5.7453507 13.1690258,4.85321101 C13.1690258,4.42241386 13.3398717,4.00940601 13.6437183,3.70573097 C13.947565,3.40205594 14.3593054,3.23279825 14.7876769,3.23541223 L14.7876769,3.23541223 Z M14.7876769,8.43604916 C15.6747934,8.4416522 16.3899987,9.16837302 16.386359,10.0605051 C16.3826632,10.9526371 15.6615071,11.6733859 14.7743754,11.6715573 C13.8872436,11.6697147 13.1690258,10.9459876 13.1690258,10.053848 C13.1690258,9.62305079 13.3398717,9.21004294 13.6437183,8.90636794 C13.947565,8.60269286 14.3593054,8.4334352 14.7876769,8.43604916 L14.7876769,8.43604916 Z M21.2735069,8.43604916 C22.1606234,8.4416522 22.8758286,9.16837302 22.8721889,10.0605051 C22.8684932,10.9526371 22.1473371,11.6733859 21.2602053,11.6715573 C20.3730736,11.6697147 19.6548558,10.9459876 19.6548558,10.053848 C19.6548558,9.62305079 19.8257017,9.21004294 20.1295483,8.90636794 C20.4333949,8.60269286 20.8451353,8.4334352 21.2735069,8.43604916 L21.2735069,8.43604916 Z"></path>    </g></svg>