<svg fill="none" height="32" viewBox="0 0 32 32" width="32" xmlns="http://www.w3.org/2000/svg" xmlns:xlink="http://www.w3.org/1999/xlink"><linearGradient id="a" gradientUnits="userSpaceOnUse" x1="21.596" x2="10.152" y1="10.452" y2="21.896"><stop offset=".2" stop-color="#0052cc"/><stop offset="1" stop-color="#2684ff"/></linearGradient><path d="m16 16v6.764h-6.664v-6.764h6.664v-6.76401h-12.164c-.31268.00834-.60975.13844-.82792.36259s-.34019.52462-.34008.83742v17.904c-.00011.3128.12191.6133.34008.8374s.51524.3542.82792.3626h17.66c.1558-.001.3098-.033.4532-.0941.1433-.0611.2731-.15.3818-.2616.1086-.1117.194-.2438.2512-.3888.0572-.1449.085-.2997.0818-.4555v-12.34z" fill="url(#a)"/><path d="m16 2.47199v6.764h6.664v6.76401h6.668v-12.34001c.0001-.31279-.1219-.61326-.3401-.83741s-.5152-.35425-.8279-.36259z" fill="#2684ff"/></svg>