<svg xmlns="http://www.w3.org/2000/svg" viewBox="0 0 36 36"><path style="opacity:0.5; fill:#091e42; fill-rule:evenodd;" d="M33.32,2.74,26.2,0V32.79L31.93,35a1.92,1.92,0,0,0,2.62-1.8V4.54A1.93,1.93,0,0,0,33.32,2.74Z"/><polygon style="fill:#091e42; fill-rule:evenodd;" points="18.16 36 26.2 32.79 26.2 0 18.16 3.21 18.16 36"/><polygon style="opacity:0.5; fill:#091e42; fill-rule:evenodd;" points="9.8 0 9.8 32.79 18.16 36 18.16 3.21 9.8 0"/><path style="fill: #091e42; fill-rule:evenodd;" d="M2.68,2.74a1.93,1.93,0,0,0-1.23,1.8V33.19A1.92,1.92,0,0,0,4.07,35l5.73-2.2V0Z"/></svg>