<svg xmlns="http://www.w3.org/2000/svg" viewBox="0 0 36 36"><path style="fill: #091e42; fill-rule:evenodd;" d="M33.42,3.88c.2-.5.33-.83-.32-.83H30.89C26.48,3.05,20.81,1,18.77.15a2.05,2.05,0,0,0-1.54,0c-2,.81-7.71,2.9-12.12,2.9H2.9c-.65,0-.52.33-.32.83A3.07,3.07,0,0,1,2.86,5V16.65A19.32,19.32,0,0,0,13.33,33.83l3.78,2a2,2,0,0,0,1.78,0l3.78-2A19.32,19.32,0,0,0,33.14,16.65V5A3.07,3.07,0,0,1,33.42,3.88ZM25.55,12.8a1.45,1.45,0,0,0-.05-2l-.05-.05a1.45,1.45,0,0,0-2,.05l-7.63,7.63L13.2,15.81l0-.05a1.45,1.45,0,0,0-2,2.1l3.65,3.65.05,0a1.45,1.45,0,0,0,2,0l8.66-8.66Z"/></svg>